<svg width="64" height="50" viewBox="0 0 64 50" fill="none" xmlns="http://www.w3.org/2000/svg">
<path d="M44.5 24V33H46.5V24H44.5ZM41 29.5H50V27.5H41V29.5Z" fill="currentColor"/>
<path d="M37.2952 9.57381C37.2952 10.9953 34.9906 12.1476 32.1476 12.1476C29.3047 12.1476 27 10.9953 27 9.57381C27 8.15233 29.3047 7 32.1476 7C34.9906 7 37.2952 8.15233 37.2952 9.57381Z" stroke="currentColor" stroke-width="2"/>
<path fill-rule="evenodd" clip-rule="evenodd" d="M26 21.4134C26 22.7069 27.0227 23.6088 28.0605 24.1277C29.1581 24.6765 30.6046 24.9871 32.1476 24.9871C33.6907 24.9871 35.1371 24.6765 36.2347 24.1277C37.2726 23.6088 38.2952 22.7069 38.2952 21.4134H36.2952C36.2952 21.5413 36.1655 21.9263 35.3403 22.3389C34.5749 22.7216 33.4475 22.9871 32.1476 22.9871C30.8477 22.9871 29.7203 22.7216 28.9549 22.3389C28.1298 21.9263 28 21.5413 28 21.4134H26Z" fill="currentColor"/>
<path d="M27 9.57382V21.4133" stroke="currentColor" stroke-width="2"/>
<path d="M37.2952 9.57382V21.4133" stroke="currentColor" stroke-width="2"/>
</svg>
