<svg width="64" height="50" viewBox="0 0 64 50" fill="none" xmlns="http://www.w3.org/2000/svg">
<path d="M44.5 24V33H46.5V24H44.5ZM41 29.5H50V27.5H41V29.5Z" fill="currentColor"/>
<path fill-rule="evenodd" clip-rule="evenodd" d="M25.1514 10.7372C24.6226 11.1471 24.1471 11.6226 23.7372 12.1514L21.5147 9.92893L22.9289 8.51472L25.1514 10.7372ZM29 9.14251C29.3275 9.10124 29.6613 9.07998 30 9.07998C30.3387 9.07998 30.6725 9.10124 31 9.14251V6H29V9.14251ZM34.8486 10.7371C35.3774 11.1471 35.8529 11.6226 36.2628 12.1514L38.4853 9.92893L37.0711 8.51472L34.8486 10.7371ZM37.8575 16C37.8987 16.3275 37.92 16.6613 37.92 17C37.92 17.3387 37.8987 17.6725 37.8575 18H41V16H37.8575ZM36.2628 21.8486C35.8529 22.3774 35.3774 22.8529 34.8486 23.2628L37.0711 25.4853L38.4853 24.0711L36.2628 21.8486ZM31 24.8575C30.6725 24.8987 30.3387 24.92 30 24.92C29.6613 24.92 29.3275 24.8987 29 24.8575V28H31V24.8575ZM25.1514 23.2628C24.6226 22.8528 24.1471 22.3774 23.7372 21.8486L21.5147 24.0711L22.9289 25.4853L25.1514 23.2628ZM22.1425 18C22.1013 17.6725 22.08 17.3387 22.08 17C22.08 16.6613 22.1013 16.3275 22.1425 16H19V18H22.1425Z" fill="currentColor"/>
<circle cx="30" cy="17" r="5.16" stroke="currentColor" stroke-width="2"/>
</svg>
