<svg width="64" height="50" viewBox="0 0 64 50" fill="none" xmlns="http://www.w3.org/2000/svg">
<path fill-rule="evenodd" clip-rule="evenodd" d="M43.6702 12.0131C43.4711 11.9869 43.2687 12.0001 43.0747 12.0521C42.8807 12.1041 42.6989 12.1938 42.5395 12.316C42.3802 12.4383 42.2465 12.5908 42.1461 12.7647C42.0457 12.9386 41.9805 13.1307 41.9543 13.3298C41.928 13.5289 41.9413 13.7313 41.9933 13.9253C42.0453 14.1193 42.135 14.3011 42.2572 14.4605C42.3795 14.6198 42.5319 14.7535 42.7059 14.8539C42.8798 14.9543 43.0718 15.0195 43.271 15.0457C43.4701 15.072 43.6724 15.0587 43.8664 15.0067C44.0604 14.9547 44.2423 14.865 44.4016 14.7428C44.561 14.6205 44.6947 14.4681 44.7951 14.2941C44.8955 14.1202 44.9607 13.9282 44.9869 13.729C45.0131 13.5299 44.9999 13.3276 44.9479 13.1336C44.8959 12.9396 44.8062 12.7577 44.684 12.5984C44.5617 12.439 44.4092 12.3053 44.2353 12.2049C44.0614 12.1045 43.8693 12.0393 43.6702 12.0131ZM40.6705 15.678C40.9523 16.0453 41.3037 16.3535 41.7045 16.5852L41.7059 16.586C42.1073 16.8177 42.5504 16.9681 43.0099 17.0286C43.4694 17.0891 43.9364 17.0585 44.3841 16.9386C44.8318 16.8186 45.2514 16.6116 45.6192 16.3295C45.9869 16.0473 46.2954 15.6955 46.5271 15.2941C46.7589 14.8927 46.9093 14.4496 46.9698 13.9901C47.0303 13.5306 46.9997 13.0636 46.8797 12.6159C46.7598 12.1682 46.5528 11.7486 46.2707 11.3808C45.9885 11.0131 45.6367 10.7046 45.2353 10.4729C44.8339 10.2411 44.3908 10.0907 43.9313 10.0302C43.4717 9.9697 43.0048 10.0003 42.5571 10.1203C42.1094 10.2402 41.6897 10.4472 41.322 10.7293C40.9543 11.0115 40.6458 11.3633 40.414 11.7647C40.1823 12.1661 40.0319 12.6092 39.9714 13.0687C39.9109 13.5283 39.9415 13.9952 40.0614 14.4429C40.1814 14.8906 40.3884 15.3103 40.6705 15.678Z" fill="currentColor"/>
<path d="M27.0001 22.3529L21.7059 15.2941" stroke="currentColor"/>
<circle r="2.52941" transform="matrix(-1 0 0 1 28.7647 24.1176)" stroke="currentColor" stroke-width="2"/>
<circle r="2.52941" transform="matrix(-1 0 0 1 20.5294 13.5294)" stroke="currentColor" stroke-width="2"/>
<path d="M36 13.5L23 13.5" stroke="currentColor" stroke-linecap="round"/>
<line x1="37.6873" y1="13.8588" x2="34.1517" y2="10.3233" stroke="currentColor"/>
<line x1="37.6873" y1="13.1517" x2="34.1518" y2="16.6872" stroke="currentColor"/>
</svg>
